inDegrees=no
num_controls=7
num_derivatives=13
num_iterations=160
num_multipliers=7
num_parameters=0
num_slacks=7
num_states=26
objective=5.598764
objective_accelerations=0.716321
objective_balance=0.039137
objective_effort=0.469776
objective_height=4.317968
objective_ligament=0.055562
solver_duration=1762.764478
status=Solve_Succeeded
success=true
DataType=double
version=3
OpenSimVersion=4.4-2022-07-23-0e9fedc
endheader
time	/jointset/ground_pelvis/pelvis_tilt/value	/jointset/ground_pelvis/pelvis_tx/value	/jointset/ground_pelvis/pelvis_ty/value	/jointset/hip_l/hip_flexion_l/value	/jointset/hip_l/hip_adduction_l/value	/jointset/hip_l/hip_rotation_l/value	/jointset/back/lumbar_extension/value	/jointset/patellofemoral_l/patellar_flexion_l/value	/jointset/knee_l/knee_flexion_l/value	/jointset/knee_l/knee_adduction_l/value	/jointset/knee_l/knee_rotation_l/value	/jointset/ankle_l/ankle_angle_l/value	/jointset/subtalar_l/subtalar_angle_l/value	/jointset/ground_pelvis/pelvis_tilt/speed	/jointset/ground_pelvis/pelvis_tx/speed	/jointset/ground_pelvis/pelvis_ty/speed	/jointset/hip_l/hip_flexion_l/speed	/jointset/hip_l/hip_adduction_l/speed	/jointset/hip_l/hip_rotation_l/speed	/jointset/back/lumbar_extension/speed	/jointset/patellofemoral_l/patellar_flexion_l/speed	/jointset/knee_l/knee_flexion_l/speed	/jointset/knee_l/knee_adduction_l/speed	/jointset/knee_l/knee_rotation_l/speed	/jointset/ankle_l/ankle_angle_l/speed	/jointset/subtalar_l/subtalar_angle_l/speed	/forceset/tau_hip_flexion_l	/forceset/tau_hip_adduction_l	/forceset/tau_hip_rotation_l	/forceset/tau_knee_flexion_l	/forceset/tau_ankle_angle_l	/forceset/tau_subtalar_angle_l	/forceset/tau_lumbar_extension	lambda_cid13_p0	lambda_cid13_p1	lambda_cid13_p2	lambda_cid13_p3	lambda_cid13_p4	lambda_cid13_p5	lambda_cid14_p0	/jointset/ground_pelvis/pelvis_tilt/accel	/jointset/ground_pelvis/pelvis_tx/accel	/jointset/ground_pelvis/pelvis_ty/accel	/jointset/hip_l/hip_flexion_l/accel	/jointset/hip_l/hip_adduction_l/accel	/jointset/hip_l/hip_rotation_l/accel	/jointset/back/lumbar_extension/accel	/jointset/patellofemoral_l/patellar_flexion_l/accel	/jointset/knee_l/knee_flexion_l/accel	/jointset/knee_l/knee_adduction_l/accel	/jointset/knee_l/knee_rotation_l/accel	/jointset/ankle_l/ankle_angle_l/accel	/jointset/subtalar_l/subtalar_angle_l/accel	gamma_cid13_p0	gamma_cid13_p1	gamma_cid13_p2	gamma_cid13_p3	gamma_cid13_p4	gamma_cid13_p5	gamma_cid14_p0
1	-0.5002319462873198	-0.09775245592468346	0.5023710786073147	2.094395102393195	-0.245420199668497	0.296733017906968	-0.4363323019598813	1.608057245716764	1.608057245716638	-0.1714690695657407	0.1745328493630201	0.235510446214147	0.05975095486050317	-0.01041476788298475	0.00086117746047765	-0.003626957506119673	0.01716466337571946	0.00131837990117585	0.003093402042393924	-6.011760601961269e-06	0.00800975963231223	0.00800975963231124	0.0003433787441460081	-4.336027661639262e-06	0.001644758085583068	0.002037559317147762	-0.3555242010550405	-0.03214376437907705	-0.001155765604993696	-0.3899140926068247	0.133933497530935	0.00166600182550248	0.30631213245316	-5.238795081237809	2.326003666436876	-3.2088164542757	19.86845514766889	-735.6117291597225	-65.6651516778787	-0.03588550276222132	0.2815909725732366	-0.2689149786353072	1.96512602866874	-5.519888648878423	-0.9814084414899649	-2.344660282065874	0.0006130526153122261	-5.865643148879199	-5.865643148879015	-0.1852171968457451	0.02120324210959418	-0.8958272906518515	-1.420030511667862	-4.512406997279924e-10	3.246838512452267e-10	-9.117723894988132e-09	-6.317458373714811e-10	1.555009053765568e-09	-1.03263177305061e-08	1.689877002349579e-09
1.01	-0.5003213990426669	-0.09775706814636159	0.5024333372160027	2.094289398892445	-0.2454553839705282	0.2966443004081189	-0.4363322640930917	1.607843981470666	1.607843981470538	-0.1714716476993041	0.1745328351823486	0.2354829348220719	0.05970149100649437	-0.007406084768792556	-0.001761232380518518	0.01610758563396833	-0.03845334358820957	-0.008356866248115576	-0.02083882224451827	1.033496324886434e-05	-0.05068796172241729	-0.05068796172241682	-0.0008652756890743815	6.496490439954507e-07	-0.007097565844788471	-0.01191626927610144	-0.356475940917524	-0.03220440203603566	-0.001190574729869986	-0.3901257614900744	0.134325919478896	0.001677139629641277	0.3071872969760726	-5.160048230806479	2.308333428113556	-3.207090158751023	19.51756250937353	-736.6065554806781	-65.71137417669681	-0.03587510804964945	0.3209630992661445	-0.2555386997154034	1.981952460077963	-5.604396616989607	-0.9608319576587225	-2.417797678589975	0.001657958535413779	-5.875637912779966	-5.875637912779867	-0.08963506304801427	-0.009993605912127886	-0.8560142602222375	-1.380956660074842	-8.7004616085987e-09	8.928483473482068e-09	4.530709395940455e-08	3.402379818372948e-08	-9.662339621729801e-09	8.035950247558436e-08	-8.133416942892855e-09
1.02	-0.5003786737431868	-0.09778723140902644	0.5026938080567714	2.093623168803295	-0.2455873705852543	0.296316201831083	-0.4363321602638072	1.607042979754219	1.607042979754089	-0.1714865014764975	0.1745328428910806	0.2353694843274948	0.0595129093411688	-0.00397915691764239	-0.004249030736866474	0.03601548891002634	-0.09493694642571705	-0.01804208263780606	-0.04478281359487372	7.180737716280986e-06	-0.1095377344375511	-0.1095377344375499	-0.002111749981807259	4.187122276779934e-08	-0.01554306241485673	-0.02578600294620569	-0.3574276807800089	-0.032265039692996	-0.001225383854750879	-0.3903374303733234	0.1347183414268572	0.001688277433777916	0.3080624614989839	-5.084843398499647	2.291047190638788	-3.205155140977856	19.22240792487049	-737.634142947787	-65.68460069353608	-0.03586219236566763	0.3652399199648389	-0.241992681705662	1.99979805586274	-5.693007823594113	-0.9834024895698086	-2.347013694754543	-0.003287137261508893	-5.896053420960042	-5.896053420960011	-0.1927811687482572	0.02008455120427926	-0.8364618185911962	-1.403211527038912	-7.179707065402635e-09	7.679393931094148e-09	1.095347522409924e-07	4.124185635386597e-08	-2.138850022404912e-08	1.627031354446103e-07	-2.085178538241468e-08
1.03	-0.5003996340775583	-0.09784156345581631	0.503154123943851	2.092388088537027	-0.2458161385916987	0.2957486828343301	-0.436332105917328	1.605652865959942	1.605652865959891	-0.1715139415481639	0.1745328183581708	0.2351729217703372	0.05918618497631824	-0.0001427337754004622	-0.006590889085418303	0.05606705231330027	-0.152197328571472	-0.02770263078172761	-0.06871357380259376	3.163427328245987e-06	-0.1684952444664935	-0.1684952444664988	-0.003379061930217872	-2.872438030520385e-06	-0.02373347307596665	-0.0395333576025921	-0.3581088863765972	-0.03229085243593983	-0.001334491453364034	-0.3904043691909459	0.1353138512094876	0.00178191333998453	0.3087505819311539	-4.915048740076323	2.213696190042472	-3.184878948998619	18.78116142801933	-738.3391673851961	-65.68507142083774	-0.03587679892785871	0.4033729455821769	-0.2262993030618883	2.010733358592768	-5.760284675744371	-0.956072486040162	-2.415017487772497	0.0009622024382919315	-5.897126003972271	-5.897126003973273	-0.09414367516537134	-0.01021288103616488	-0.8049299627544508	-1.3566926928273	-5.559258895144605e-09	6.329764703352858e-09	1.738624395065313e-07	4.81799401785843e-08	-3.311985278480542e-08	2.449616440540742e-07	-3.359969539840877e-08
